<?xml version="1.0" encoding="utf-8"?>
<!-- Generator: Adobe Illustrator 23.0.4, SVG Export Plug-In . SVG Version: 6.00 Build 0)  -->
<svg version="1.1" id="Capa_1" xmlns="http://www.w3.org/2000/svg" xmlns:xlink="http://www.w3.org/1999/xlink" x="0px" y="0px"
	 viewBox="0 0 340.75 308.05" style="enable-background:new 0 0 340.75 308.05;" xml:space="preserve">
<style type="text/css">
	.st0{fill:#1F1F1C;}
	.st1{fill:#B8B834;}
	.st2{fill:#287848;}
	.st3{fill:#287747;}
	.st4{fill:#277948;}
	.st5{fill:#7D1A16;}
	.st6{fill:#B3B335;}
	.st7{fill:#2B7145;}
	.st8{fill:#7C1B16;}
	.st9{fill:#32302F;}
	.st10{fill:#21211F;}
</style>
<g>
	<g>
		<path class="st0" d="M110.42,87.72c-0.18-9.4-0.3-22.21,1.29-35.03c2.45-19.71,16.01-34.57,35.63-35.61
			c21.51-1.14,43.18-1.4,64.51,2.91c14.22,2.88,19.62,9.22,18.4,24.16c-1.73,21.24-3.09,42.49-3.98,63.77
			c-0.22,5.18-0.44,10.38-1.08,15.52c-1.59,12.74-6.54,18.31-19.16,19.3c-25.7,2.01-51.36,0.89-76.59-4.75
			c-14.29-3.2-17.11-7.52-17.62-22.26C111.55,107.53,111.02,99.35,110.42,87.72z"/>
		<path class="st1" d="M170.89,21.6c13.39-0.09,26.8-0.11,39.97,2.75c11.75,2.55,16.54,8.42,15.09,20.28
			c-3,24.45-3.52,49.02-4.55,73.57c-0.64,15.3-5.05,19.38-20.54,20.3c-18.34,1.09-36.56-0.2-54.8-1.95
			c-8.55-0.82-13.02-4.97-14.94-13.42c-4.88-21.52-2.13-43.05-0.37-64.47c1.58-19.2,7.09-23.21,26.58-23.99
			c14.99-0.6,29.97-2.9,44.93,0.21c6.22,1.29,11.83,3.54,12.24,11.01c0.24,4.3,2.49,10.67-3.23,11.92
			c-4.69,1.03-11.46,2.64-14.44-5.18c-1.99-5.22-7.46-6.22-12.49-6.09c-11.47,0.3-22.95,0.71-34.38,1.64
			c-7.46,0.61-12.94,4.71-14.45,12.38c-3.61,18.22-3.8,36.33,2.74,54.1c2.16,5.85,5.98,9.4,12.01,11.16
			c16.51,4.84,33.42,5.01,50.36,4.5c6.9-0.21,9.43-5.71,11.15-11.44c2.94-9.82,2.08-20.09,2.84-30.1
			c0.95-12.56,3.93-24.83,4.3-37.41c0.41-13.76-3.66-19.12-17.22-21.17c-18.25-2.76-36.59-1.52-54.65,1.32
			c-14.94,2.35-19.75,9.06-20.58,23.97c-0.34,6-1.02,11.98-1.44,17.97c-0.17,2.36-0.32,4.4-3.57,4.07c-2.62-0.27-5.12-0.62-5.01-4
			c0.36-11.15-1.13-22.54,3.07-33.26c4.72-12.04,14.79-17.26,26.83-18.51C154.43,20.92,162.69,21.6,170.89,21.6z"/>
		<path class="st1" d="M194.07,72.93c-12.18-8.66-24.36-7.09-36.28-6.85c-3.24,0.06-5.38,2.26-6.92,5.09
			c-11.48,21.21,0.41,42.14,24.29,42.67c3.27,0.07,6.57,0.06,9.83-0.26c6.18-0.6,10.24-3.82,10.8-10.26
			c0.65-7.61,1.04-15.25,1.39-22.88c0.21-4.51,1.44-7.34,6.87-6.29c4.3,0.83,7.64,1.21,6.77,7.43c-1.37,9.71-1.49,19.6-2.23,29.41
			c-0.97,12.66-4.33,15.93-16.81,15.47c-12.81-0.47-25.59-1.15-38.17-4.22c-6.28-1.53-9.97-4.95-11.89-10.96
			c-5.23-16.3-5-32.79-1.94-49.39c0.95-5.13,4.25-8.24,9.38-8.96c12.21-1.7,24.52-1.76,36.82-1.69c5.34,0.03,8,2.94,8.09,8.2
			C194.13,63.48,194.07,67.52,194.07,72.93z"/>
		<path class="st2" d="M180.85,79.13c-6.99-0.63-14-1.11-20.96-1.95c-1.92-0.23-4.86-0.3-4.89-3.16c-0.03-2.59,2.57-3.71,4.59-3.81
			c8.88-0.42,17.75-0.06,26.27,2.79c2.02,0.67,4.37,2.3,3.81,4.61c-0.68,2.8-3.64,1.12-5.57,1.5
			C183.05,79.31,181.93,79.14,180.85,79.13z"/>
		<path class="st3" d="M168.03,100.58c-3.94-0.29-7.73-0.46-11.5-0.89c-1.28-0.15-2.7-0.81-2.94-2.39
			c-0.29-1.88,1.41-2.27,2.56-2.55c10.97-2.68,22.01-2.28,33.05-0.44c1.4,0.23,2.51,1.21,2.22,2.84c-0.32,1.78-1.96,1.61-3.23,1.72
			C181.43,99.48,174.67,100.02,168.03,100.58z"/>
		<path class="st4" d="M173.78,88.71c-5.42,0.4-10.84,0.74-16.25,1.23c-1.62,0.15-3.73,0.92-4.32-0.88
			c-0.64-1.95-0.62-4.38-0.08-6.38c0.6-2.25,2.63-1.04,4.1-0.68c9.36,2.29,18.87,2.18,28.41,2.09c2.18-0.02,5.86-1.28,5.91,2.27
			c0.06,4.21-3.93,2.56-6.31,2.7c-3.8,0.22-7.63,0.06-11.44,0.06C173.8,88.99,173.79,88.85,173.78,88.71z"/>
		<path class="st5" d="M116.57,93.04c0-2.44-0.08-4.88,0.03-7.32c0.07-1.75-0.51-4.17,2.69-3.65c2.59,0.42,5.66,0.16,5.53,4.28
			c-0.15,4.61-0.06,9.22-0.11,13.83c-0.03,2.78-1.14,4.78-4.18,4.96c-3.39,0.2-3.97-2.04-3.93-4.78c0.04-2.44,0.01-4.88,0.01-7.32
			C116.6,93.04,116.59,93.04,116.57,93.04z"/>
		<path class="st6" d="M126.71,126.36c0.04,0.87,0.76,2.67-1.31,3.47c-1.81,0.7-3.14-0.39-4.18-1.66
			c-3.78-4.65-4.69-10.16-4.64-15.95c0.02-2.46,1.27-3.27,3.57-3.15c2.18,0.12,4.39-0.15,4.73,2.99
			C125.36,116.62,126.03,121.15,126.71,126.36z"/>
		<path class="st7" d="M162.63,106.32c7.76-1.17,15.41-0.32,22.88-2.36c1.43-0.39,3.72-0.82,4.31,0.97
			c0.78,2.35-1.35,3.16-3.24,3.75C178.21,111.29,170.27,109.78,162.63,106.32z"/>
		<path class="st8" d="M204.55,62.9c1.76,2.23,7.03-1.25,7.59,3.98c0.22,2.08-0.84,4.75-3.87,3.09c-3.01-1.66-8.34,1.74-9.27-3.83
			C198.4,62.46,201.58,62.87,204.55,62.9z"/>
	</g>
	<g>
		<path class="st9" d="M109.65,188.96c-0.01-1.88,0.16-4.14-2.73-3.92c-2.38,0.18-1.94,2.22-1.96,3.75
			c-0.06,3.65-0.02,7.3-0.02,10.96c-4.17-3.95-6.82-8.27-9.51-12.56c-1.11-1.77-2.62-2.82-4.79-2.11c-2.17,0.71-1.44,2.64-1.47,4.12
			c-0.08,5.46-0.1,10.93,0,16.39c0.04,1.96-0.92,5.03,2.61,4.76c3.37-0.25,2.04-3.29,2.15-5.21c0.19-3.14,0.05-6.3,0.05-9.45
			c0.53-0.07,1.05-0.13,1.58-0.2c2.59,4.16,5.23,8.3,7.75,12.5c1.11,1.85,2.62,3.02,4.67,2.37c1.88-0.59,1.7-2.54,1.7-4.19
			C109.66,200.43,109.69,194.69,109.65,188.96z"/>
		<path class="st9" d="M68.39,184.97c-2.33-0.27-2.59,1.34-2.61,3.09c-0.05,4.62,0.08,9.25-0.19,13.85
			c-0.18,3.13-2.1,4.85-5.39,4.82c-3.32-0.03-5.02-1.79-5.27-4.95c-0.17-2.16,0.39-4.48-0.2-6.49c-1-3.42,2.99-9.82-2.61-9.8
			c-4.65,0.01-0.8,6.43-2.17,9.06c0,2.53-0.05,4.43,0.01,6.33c0.21,6.65,4.04,10.11,10.31,10.1c6.28-0.01,10.13-3.53,10.33-10.13
			c0.13-4.34,0.02-8.69,0.01-13.04C70.59,186.31,70,185.16,68.39,184.97z"/>
		<path class="st9" d="M210.72,188.93c3.1-1.66,5.72-0.46,7.22,2.96c0.62,1.41,2.25,1.93,3.44,1.17c1.76-1.13,0.91-2.97,0.18-4.34
			c-1.21-2.27-3.23-3.55-5.83-3.98c-3.99-0.67-7.8-0.41-10.35,3.07c-3.89,5.31-3.68,11.24-1.51,17.12c1.47,3.97,4.82,5.93,8.9,6.08
			c3.71,0.14,7.01-1.24,8.88-4.7c0.75-1.39,1.35-3.33-0.42-4.38c-1.28-0.76-2.71,0.01-3.28,1.45c-1.44,3.65-4.32,4.23-7.28,2.77
			c-3.38-1.68-3.41-5.25-3.32-8.58C207.17,194.16,207.48,190.66,210.72,188.93z"/>
		<path class="st9" d="M324.25,206.51c0.02-5.97,0.03-11.95-0.02-17.92c-0.01-1.56,0.25-3.47-2.16-3.54
			c-2.42-0.07-2.28,1.8-2.3,3.39c-0.05,3.79-0.01,7.58-0.01,11.37c-2.87-1.93-3.74-4.89-5.58-5.73c-4.18-1.9-2.68-8.89-8.5-8.83
			c-2.76,8.21-2.68,16.43-0.02,24.64c0.55-0.02,1.11-0.05,1.66-0.07c4.44-4.23-1.4-10.73,3.29-14.91c2.58,4.42,5.19,8.84,7.74,13.28
			c0.9,1.57,2.17,2.48,3.96,2.17C324.5,209.97,324.25,208.1,324.25,206.51z"/>
		<path class="st9" d="M18.94,184.92c-2.28-0.1-2.45,1.63-2.45,3.34c0,6.28-0.02,12.57,0.01,18.85c0.01,1.67,0.13,3.52,2.49,3.26
			c1.51-0.17,2.41-1.36,2.19-2.91c-0.79-5.62,0.61-8.99,7.23-7.72c1.29,0.25,2.98-0.19,2.71-2.03c-0.1-0.69-1.41-1.37-2.29-1.74
			c-0.71-0.29-1.62-0.15-2.43-0.1c-3.06,0.2-5.3-0.21-5.22-4.24c0.1-4.94,3.67-2.68,5.89-3.18c1.99-0.44,4.36,0.86,6.85-2.45
			C28.5,183.97,23.65,185.12,18.94,184.92z"/>
		<path class="st9" d="M243.59,185.87c-5.48,0.28-2.19,8.4-2.33,12.96c-0.11,3.74-2.9,10.85,2.21,10.85c4.4,0,0.85-7.33,2.38-11.2
			C244.12,194.12,248.05,185.64,243.59,185.87z"/>
		<path class="st9" d="M133.41,184.75c-8.2,0.15-3.61,6.1-4.75,9.41c-0.33,0.97-0.05,2.16-0.05,3.25c0,13.31,3.14,16.29,13.21,12.27
			c7.53-3.01,7.07-9.61,6.37-15.89C147.43,187.09,142.44,184.59,133.41,184.75z M136.68,206.44c-7.1-0.8-1.12-6.76-3.81-9.63
			c2.26-2.57-2.75-7.91,3.57-8.28c6.31-0.36,7.29,4.24,7.23,9.36C143.62,202.71,142.69,207.12,136.68,206.44z"/>
		<path class="st9" d="M275.02,184.41c-6.95-0.02-10.53,4.57-10.49,13.47c0.04,8.32,3.58,12.95,10.09,13.18
			c6.67,0.24,11.15-5.04,11.21-13.21C285.9,189.34,281.96,184.44,275.02,184.41z M275.07,206.61c-6.05,0.12-5.77-4.63-5.74-8.78
			c0.03-4.37-0.47-9.66,6.05-9.31c5.49,0.29,5.62,4.99,5.68,9.38C280.95,201.99,280.78,206.5,275.07,206.61z"/>
		<path class="st9" d="M178.26,186.49c-1.43-3.09-4.47-2.5-5.76,1.24c-2.12,6.16-4.34,12.28-6.41,18.46
			c-0.44,1.32-2.19,3.05,0.23,4.1c1.83,0.79,2.83-0.44,3.84-1.98c3.77-5.8,7.58-5.67,11.08,0.3c0.78,1.33,1.83,2.05,3.28,1.83
			c1.32-0.2,1.52-1.32,1.28-3.18C183.5,200.74,181.44,193.35,178.26,186.49z M176.82,200.23c-0.45,0.45-2.55,0.22-2.86-0.31
			c-1.4-2.39,0.6-4.29,1.45-6.86C177.38,195.98,179.07,197.97,176.82,200.23z"/>
	</g>
	<g>
		<path class="st10" d="M325.62,247.25c1.87-1.02,5.5-1.36,4.16-4.69c-1.28-3.18-3.92-5.23-7.86-3.93
			c-4.7,1.56-8.82,4.06-12.81,7.02c-9.96,7.41-12.69,20.67,4.14,23.89c1.06,0.2,2.08,0.64,3.08,1.07c5.57,2.43,3.63,6.06,0.95,9.04
			c-1.29,1.44-3.92,1.68-5.95,2.46c-3.29,1.16-7.35,1.27-8.22,5.8c-0.29,1.52,0.74,2.72,1.9,3.22c4.15,1.81,6.77-1.27,9.66-3.36
			c0.19-0.14,0.26-0.46,0.38-0.7c2.41-1.74,4.61-4.5,7.26-5.03c8.17-1.62,5.29-7.8,5.44-12.36c0.16-4.97-3.49-7.71-7.86-9.28
			c-2.42-0.87-4.94-1.43-7.76-2.23C315.57,252.62,320.6,249.99,325.62,247.25z"/>
		<path class="st10" d="M60.66,234.59c-4.86-5.88-10.61-8.5-17.97-4.81c-2.42,1.21-3.7,1.54-6.64-0.48
			c-3.54-2.44-11.59-4.84-13.17,0.28c-5.03,16.3-8.15,33.19-11.86,49.89c-1.53,6.87,2.03,8.59,8.27,8.03
			c10.24-0.92,9.26-9.52,10.68-15.88c1.15-5.15,2.29-8.27,7.82-6.07c10.83,0.62,17.84-4.85,23.37-12.94
			C65.34,246.48,65.52,240.47,60.66,234.59z M51.18,238.38c-0.48,1.85-0.53,3.81-1.09,5.62c-1.6,5.13-10.77,13.08-14.17,12.53
			c-2.48-0.4-1.88-2.14-1.74-3.71c1.1-12.32,5.39-18.38,13.09-18.52C50.34,233.96,52.1,234.82,51.18,238.38z"/>
		<path class="st10" d="M179.94,249.05c-2.59,0.68-4.25,1.39-7.49-0.82c-8.05-5.48-15.45-6.18-18.64,5.4
			c-1.99,7.25-2.89,14.94-7.11,21.48c-3.54,0.53-5.4,4.6-9.73,4.43c0.63-7.67,2.43-15,4.82-22.2c2.19-6.61-2.18-10.03-6.95-11.83
			c-5.9-2.23-5.05,3.96-6.39,6.92c-1.33,2.94-1.87,6.22-2.93,9.29c-2.16,6.28-2.88,13.46-10.13,16.65c-4.86-0.32-5.8-3.31-4.85-7.36
			c1.29-5.53,2.45-11.13,4.23-16.51c2.2-6.67-3-8.02-6.88-9.88c-4.66-2.24-5.28,2.31-6.49,5.01c-1.88,4.19-3.04,8.72-5.09,12.81
			c-2.25,4.5-0.03,10.66-5.33,13.93c-2.46,0.64-4.59,1.82-6.19,3.85c-1.57,0.49-3.15,0.97-4.72,1.46
			c-1.21-10.08,3.34-19.16,5.01-28.75c1.56-2.97,3.11-5.94,4.67-8.92c1.97-1.69,2.81-3.94,3.16-6.42
			c1.93-8.11-0.44-11.07-8.08-10.15c-4.12,0.5-7.21,2.81-9.1,6.19c-6.53,11.68-11.29,24.09-12.12,37.54
			c-0.85,13.81,0.75,15.01,14.72,13.79c3.21,0.21,5.62-1.6,8.11-3.22c2.03-0.51,3.9-1.26,4.99-3.22c1.14,0.33,1.86-2.12,3.31-0.34
			c7.14,8.77,10.01,9.29,21.45,4.11c2.41,0.21,4.02-5.24,7.61,0.08c2.48,3.68,8.53,4.14,13.3,1.04c3.35-2.17,6.74-4.27,10.11-6.41
			c0.4,4.17-2.42,9.69,4.69,11.01c5.88,1.09,12.13-2.95,13.95-9.08c1.31-4.41,2.78-8.77,3.81-13.25
			c1.61-7.01,5.61-11.86,12.13-14.74c1.38,0.18,3.8-1.2,3.96,0.8c0.64,7.91,0.48,8,7.39,3.79
			C191.33,247.14,188.55,245.78,179.94,249.05z M90.01,232.82c1.98,0.14,1.05,2.08,1.44,3.21c-0.63,1.02-1.26,2.05-1.9,3.07
			c-1.59-0.61-1-2.27-1.61-3.35C88.23,234.47,88.17,232.68,90.01,232.82z"/>
		<path class="st10" d="M222.61,281.65c2.14-8.52,4.33-16.24,5.96-24.07c1.04-4.96-1.16-11.73-5.66-10.38
			c-6.19,1.86-11.16-1.92-16.54-0.47c-2.25,0.61-4.19,2.35-6.3,3.53c-2.5,1.4-3.65,4.62-6.83,5.09c-1.45,3.38-3.47,6.66-4.14,10.19
			c-0.94,4.96-2.38,10.64,2.64,14.43c4.82,3.64,10.37,5.29,15.81,1.3c2.93-2.15,4.15-0.17,6.18,1.17c6.86,4.51,15.3,1.9,18.07-5.35
			C229.93,280.57,226.55,280.74,222.61,281.65z M208.85,276.32c-1.47,1.67-2.85,4.57-5.85,2.96c-2.27-1.22-3.47-3.5-3.12-6.18
			c1.01-7.71,5.25-13.72,11.1-18.33c3.95-3.11,3.05,1.36,3.91,2.94C213.07,264.22,213.43,271.1,208.85,276.32z"/>
		<path class="st10" d="M290.75,247.66c-12.76-3.38-26.2,7.02-27.95,22.36c-0.53,4.66-2.53,7.25-5.88,9.6
			c-2.17,0.28-3.69,2.63-6.17,1.94c0.15-9.39,2.73-18.34,4.82-27.38c1.65-3.29,3.29-6.59,4.94-9.88c1.84-1.23,2.65-3.04,2.91-5.16
			c1.84-3.45,4.06-7.58,0.14-10.3c-3.58-2.49-8.22-2.33-12.25,0.51c-2.74,1.93-5.01,4.18-6.43,7.25
			c-5.38,11.66-9.96,23.55-10.69,36.58c-0.09,1.66,0.79,4.09-2.3,4.16c3.78,6.81,9.27,9.8,17.08,7.69c3.31,0.51,5.99-0.66,8.19-3.09
			c2.56,0.56,4.19-4.95,6.75-1.63c5.86,7.62,13.55,5.24,21.01,4.67c1.34,0.48,2.69,0.49,3.69-0.56c0.2-0.21-0.38-1.67-0.92-1.97
			c-1.05-0.59-2.01,0.03-2.63,1.04c-8.02,0.27-9.15-4.03-6.85-10.46c0.71-1.99,1.72-3.87,2.59-5.8c-0.47-3.05,0.11-6.17,2.03-8.27
			c1.96-2.15,1.61-8.23,6.45-5.83c4.15,2.06,5.59,6.35,2.4,10.86c-2.07,3.16-5.35,3.1-8.56,3.22c4.08,3.82,6.99-0.33,10.34-1.52
			c5.77-2.08,4.83-7.1,4.58-11.42C297.79,250.09,294.2,248.57,290.75,247.66z M261.18,232.81c1.97-0.34,0.64,2.89,0.72,4.53
			c-1.06,0.75-2.12,1.51-3.19,2.26C256.75,236.3,258.23,233.33,261.18,232.81z"/>
	</g>
</g>
</svg>
